<mxfile host="65bd71144e">
    <diagram id="h4WcE8Dld9O3uwJw17x0" name="Page-1">
        <mxGraphModel dx="385" dy="310" grid="1" gridSize="10" guides="1" tooltips="1" connect="1" arrows="1" fold="1" page="1" pageScale="1" pageWidth="827" pageHeight="1169" math="0" shadow="0">
            <root>
                <mxCell id="0"/>
                <mxCell id="1" parent="0"/>
                <mxCell id="4" value="Q" style="text;html=1;align=center;verticalAlign=middle;resizable=0;points=[];autosize=1;strokeColor=none;fillColor=none;" parent="1" vertex="1">
                    <mxGeometry x="230" y="145" width="30" height="30" as="geometry"/>
                </mxCell>
                <mxCell id="5" value="W" style="text;html=1;align=center;verticalAlign=middle;resizable=0;points=[];autosize=1;strokeColor=none;fillColor=none;" parent="1" vertex="1">
                    <mxGeometry x="310" y="145" width="30" height="30" as="geometry"/>
                </mxCell>
                <mxCell id="6" value="E" style="text;html=1;align=center;verticalAlign=middle;resizable=0;points=[];autosize=1;strokeColor=none;fillColor=none;" parent="1" vertex="1">
                    <mxGeometry x="384" y="145" width="30" height="30" as="geometry"/>
                </mxCell>
                <mxCell id="7" value="A" style="text;html=1;align=center;verticalAlign=middle;resizable=0;points=[];autosize=1;strokeColor=none;fillColor=none;" parent="1" vertex="1">
                    <mxGeometry x="230" y="220" width="30" height="30" as="geometry"/>
                </mxCell>
                <mxCell id="8" value="S" style="text;html=1;align=center;verticalAlign=middle;resizable=0;points=[];autosize=1;strokeColor=none;fillColor=none;" parent="1" vertex="1">
                    <mxGeometry x="310" y="220" width="30" height="30" as="geometry"/>
                </mxCell>
                <mxCell id="9" value="D" style="text;html=1;align=center;verticalAlign=middle;resizable=0;points=[];autosize=1;strokeColor=none;fillColor=none;" parent="1" vertex="1">
                    <mxGeometry x="384" y="220" width="30" height="30" as="geometry"/>
                </mxCell>
                <mxCell id="11" value="" style="shape=flexArrow;endArrow=classic;html=1;fillColor=#f8cecc;strokeColor=#b85450;width=8.571428571428571;endSize=6.725714285714285;entryX=0.473;entryY=0.954;entryDx=0;entryDy=0;entryPerimeter=0;exitX=0.478;exitY=-0.109;exitDx=0;exitDy=0;exitPerimeter=0;" parent="1" source="8" target="5" edge="1">
                    <mxGeometry width="50" height="50" relative="1" as="geometry">
                        <mxPoint x="320" y="220" as="sourcePoint"/>
                        <mxPoint x="270.21000000000004" y="179.06" as="targetPoint"/>
                    </mxGeometry>
                </mxCell>
                <mxCell id="12" value="" style="shape=flexArrow;endArrow=classic;html=1;fillColor=#f8cecc;strokeColor=#b85450;width=8.571428571428571;endSize=6.725714285714285;entryX=1.037;entryY=0.39;entryDx=0;entryDy=0;entryPerimeter=0;exitX=-0.02;exitY=0.38;exitDx=0;exitDy=0;exitPerimeter=0;" parent="1" source="8" target="7" edge="1">
                    <mxGeometry width="50" height="50" relative="1" as="geometry">
                        <mxPoint x="300" y="230" as="sourcePoint"/>
                        <mxPoint x="270.21000000000004" y="179.06" as="targetPoint"/>
                    </mxGeometry>
                </mxCell>
                <mxCell id="13" value="" style="shape=flexArrow;endArrow=classic;html=1;fillColor=#f8cecc;strokeColor=#b85450;width=8.571428571428571;endSize=6.725714285714285;entryX=0.079;entryY=0.45;entryDx=0;entryDy=0;entryPerimeter=0;exitX=1.02;exitY=0.451;exitDx=0;exitDy=0;exitPerimeter=0;" parent="1" source="8" target="9" edge="1">
                    <mxGeometry width="50" height="50" relative="1" as="geometry">
                        <mxPoint x="360" y="235" as="sourcePoint"/>
                        <mxPoint x="271.11" y="241.7" as="targetPoint"/>
                    </mxGeometry>
                </mxCell>
                <mxCell id="14" value="" style="shape=flexArrow;endArrow=classic;html=1;fillColor=#f8cecc;strokeColor=#b85450;width=8.571428571428571;endSize=6.725714285714285;exitX=0.531;exitY=1.056;exitDx=0;exitDy=0;exitPerimeter=0;" parent="1" source="8" edge="1">
                    <mxGeometry width="50" height="50" relative="1" as="geometry">
                        <mxPoint x="334.34000000000003" y="226.73000000000002" as="sourcePoint"/>
                        <mxPoint x="326" y="290" as="targetPoint"/>
                    </mxGeometry>
                </mxCell>
                <mxCell id="15" value="" style="html=1;shadow=0;dashed=0;align=center;verticalAlign=middle;shape=mxgraph.arrows2.uTurnArrow;dy=5.59;arrowHead=30;dx2=32.26;fillColor=#f8cecc;strokeColor=#b85450;" vertex="1" parent="1">
                    <mxGeometry x="350" y="160" width="40" height="50" as="geometry"/>
                </mxCell>
                <mxCell id="20" value="" style="html=1;shadow=0;dashed=0;align=center;verticalAlign=middle;shape=mxgraph.arrows2.uTurnArrow;dy=5.59;arrowHead=30;dx2=32.26;fillColor=#f8cecc;strokeColor=#b85450;flipV=1;flipH=0;rotation=-180;" vertex="1" parent="1">
                    <mxGeometry x="250" y="160" width="40" height="50" as="geometry"/>
                </mxCell>
            </root>
        </mxGraphModel>
    </diagram>
</mxfile>